# Blender v2.81 (sub 16) OBJ File: 'mortar.blend'
# www.blender.org
mtllib mortar.mtl
o group1492855365
v -0.060358 -0.097674 0.236847
v 0.063950 -0.097674 0.238024
v 0.063950 -0.017674 0.238024
v -0.060358 -0.017674 0.236847
v 0.172191 -0.097674 0.176890
v 0.172191 -0.017674 0.176890
v 0.235365 -0.097674 0.069826
v 0.235365 -0.017674 0.069826
v 0.236542 -0.097674 -0.054481
v 0.236542 -0.017674 -0.054481
v 0.175408 -0.097674 -0.162723
v 0.175408 -0.017674 -0.162723
v 0.068343 -0.097674 -0.225896
v 0.068343 -0.017674 -0.225896
v -0.055964 -0.097674 -0.227074
v -0.055964 -0.017674 -0.227074
v -0.164206 -0.097674 -0.165940
v -0.164206 -0.017674 -0.165940
v -0.227379 -0.097674 -0.058875
v -0.227379 -0.017674 -0.058875
v -0.228556 -0.097674 0.065432
v -0.228556 -0.017674 0.065432
v -0.167422 -0.097674 0.173674
v -0.167422 -0.017674 0.173674
v -0.093111 -0.015115 -0.023686
v -0.093111 -0.015630 0.030664
v -0.032842 0.288376 0.032653
v -0.032544 0.288796 -0.021697
v -0.065935 -0.016075 0.077732
v -0.010918 0.272311 0.079721
v -0.018865 -0.016333 0.104906
v 0.027352 0.244905 0.106896
v 0.035487 -0.016333 0.104906
v 0.071714 0.213503 0.106896
v 0.082557 -0.016075 0.077732
v 0.110282 0.186517 0.079721
v 0.109733 -0.015629 0.030664
v 0.132721 0.171180 0.032653
v 0.109733 -0.015114 -0.023686
v 0.133018 0.171600 -0.021696
v 0.082557 -0.014668 -0.070754
v 0.111095 0.187665 -0.068765
v 0.035487 -0.014411 -0.097929
v 0.072825 0.215071 -0.095939
v -0.018865 -0.014411 -0.097929
v 0.028462 0.246474 -0.095940
v -0.065935 -0.014669 -0.070754
v -0.010105 0.273459 -0.068765
v 0.144569 0.534503 -0.090478
v 0.195903 0.498585 -0.126647
v 0.099139 0.361886 -0.128233
v 0.047805 0.397804 -0.092063
v 0.254949 0.456788 -0.126647
v 0.158184 0.320089 -0.128233
v 0.305887 0.420311 -0.090477
v 0.209123 0.283612 -0.092063
v 0.335067 0.398928 -0.027830
v 0.238303 0.262228 -0.029416
v 0.334672 0.398369 0.044510
v 0.237907 0.261669 0.042924
v 0.304805 0.418783 0.107157
v 0.208040 0.282084 0.105571
v 0.253471 0.454701 0.143327
v 0.156707 0.318001 0.141741
v 0.194425 0.496497 0.143327
v 0.097661 0.359798 0.141741
v 0.143488 0.532975 0.107157
v 0.046723 0.396275 0.105571
v 0.114308 0.554357 0.044509
v 0.017543 0.417658 0.042923
v 0.114703 0.554917 -0.027830
v 0.017939 0.418217 -0.029416
v 0.063174 0.300214 -0.105477
v 0.020750 0.329898 -0.075585
v 0.111973 0.265671 -0.105477
v 0.154070 0.235525 -0.075584
v 0.178186 0.217853 -0.023810
v 0.177859 0.217391 0.035975
v 0.153176 0.234262 0.087750
v 0.110751 0.263946 0.117642
v 0.061953 0.298489 0.117642
v 0.019856 0.328635 0.087750
v -0.004260 0.346307 0.035975
v -0.003933 0.346769 -0.023810
v 0.177493 0.563910 -0.080188
v 0.223694 0.531584 -0.112740
v 0.276835 0.493967 -0.112740
v 0.322679 0.461137 -0.080188
v 0.348942 0.441892 -0.023805
v 0.348585 0.441389 0.041301
v 0.321705 0.459762 0.097684
v 0.275505 0.492088 0.130236
v 0.222364 0.529705 0.130236
v 0.176519 0.562534 0.097683
v 0.150258 0.581779 0.041301
v 0.150614 0.582282 -0.023805
v 0.175806 0.519810 -0.056434
v 0.209486 0.496244 -0.080165
v 0.248227 0.468821 -0.080165
v 0.281647 0.444889 -0.056434
v 0.300792 0.430859 -0.015331
v 0.300532 0.430492 0.032131
v 0.280937 0.443886 0.073234
v 0.247257 0.467451 0.096965
v 0.208517 0.494874 0.096965
v 0.175097 0.518807 0.073234
v 0.155952 0.532836 0.032131
v 0.156211 0.533203 -0.015331
v -0.093111 0.089881 -0.022691
v -0.093111 0.089366 0.031658
v -0.065935 0.088920 0.078726
v -0.018865 0.088662 0.105901
v 0.035487 0.088663 0.105901
v 0.082557 0.088920 0.078726
v 0.109733 0.089366 0.031658
v 0.109733 0.089881 -0.022691
v 0.082557 0.090327 -0.069759
v 0.035487 0.090584 -0.096934
v -0.018865 0.090584 -0.096934
v -0.065935 0.090327 -0.069759
vt 0.113405 0.064289
vt 0.108983 0.073650
vt 0.116217 0.077067
vt 0.120639 0.067706
vt 0.127484 0.036665
vt 0.122700 0.045847
vt 0.129795 0.049543
vt 0.134578 0.040362
vt 0.136341 0.039181
vt 0.129738 0.047155
vt 0.135900 0.052257
vt 0.142503 0.044284
vt 0.094356 0.115657
vt 0.084153 0.117415
vt 0.085512 0.125299
vt 0.095714 0.123541
vt -0.034439 0.144385
vt -0.042099 0.137420
vt -0.047480 0.143340
vt -0.039820 0.150304
vt -0.086925 0.109827
vt -0.092068 0.100842
vt -0.099011 0.104816
vt -0.093868 0.113801
vt -0.108983 0.073650
vt -0.113405 0.064289
vt -0.120639 0.067706
vt -0.116217 0.077067
vt -0.122700 0.045847
vt -0.127484 0.036666
vt -0.134578 0.040362
vt -0.129795 0.049543
vt -0.129738 0.047155
vt -0.136341 0.039181
vt -0.142503 0.044284
vt -0.135900 0.052257
vt -0.084153 0.117415
vt -0.094356 0.115657
vt -0.095714 0.123541
vt -0.085512 0.125299
vt 0.042099 0.137420
vt 0.034439 0.144385
vt 0.039820 0.150304
vt 0.047480 0.143340
vt 0.092068 0.100842
vt 0.086925 0.109827
vt 0.093868 0.113801
vt 0.099011 0.104816
vt -0.087986 0.002556
vt -0.088826 0.012875
vt -0.084394 0.022231
vt -0.075878 0.028118
vt -0.065559 0.028958
vt -0.056203 0.024526
vt -0.050316 0.016010
vt -0.049476 0.005691
vt -0.053908 -0.003665
vt -0.062424 -0.009552
vt -0.072743 -0.010392
vt -0.082099 -0.005960
vt 0.082099 -0.005960
vt 0.072743 -0.010392
vt 0.062424 -0.009552
vt 0.053908 -0.003665
vt 0.049476 0.005691
vt 0.050316 0.016010
vt 0.056203 0.024526
vt 0.065559 0.028958
vt 0.075878 0.028118
vt 0.084394 0.022231
vt 0.088826 0.012875
vt 0.087986 0.002556
vt -0.239988 0.202799
vt -0.233164 0.200395
vt -0.236238 0.193561
vt -0.241877 0.195548
vt -0.242393 0.186625
vt -0.235883 0.183471
vt -0.239704 0.177025
vt -0.245084 0.179632
vt -0.193672 0.117969
vt -0.187205 0.114727
vt -0.191112 0.108334
vt -0.196457 0.111013
vt -0.089787 0.025011
vt -0.082997 0.022513
vt -0.086164 0.015722
vt -0.091775 0.017786
vt 0.062850 -0.015766
vt 0.070047 -0.016498
vt 0.068668 -0.023863
vt 0.062720 -0.023258
vt 0.196101 0.054222
vt 0.203188 0.055675
vt 0.204072 0.048234
vt 0.198215 0.047034
vt 0.241032 0.164526
vt 0.247673 0.167394
vt 0.250057 0.160290
vt 0.244568 0.157920
vt 0.212538 0.226340
vt 0.218980 0.229633
vt 0.221820 0.222700
vt 0.216497 0.219978
vt 0.138780 0.224952
vt 0.145379 0.227916
vt 0.147866 0.220848
vt 0.142412 0.218398
vt 0.034021 0.191433
vt 0.040973 0.193435
vt 0.042436 0.186086
vt 0.036691 0.184432
vt -0.084203 0.170595
vt -0.076988 0.171130
vt -0.077062 0.163638
vt -0.083025 0.163196
vt -0.184815 0.183131
vt -0.177663 0.182044
vt -0.179406 0.174756
vt -0.185317 0.175654
vt -0.242517 0.179118
vt -0.236529 0.176561
vt -0.237971 0.172263
vt -0.244624 0.175105
vt -0.214000 0.239251
vt -0.208195 0.236302
vt -0.209919 0.232110
vt -0.216369 0.235386
vt -0.141349 0.236344
vt -0.135407 0.233682
vt -0.136925 0.229411
vt -0.143526 0.232369
vt -0.038299 0.201302
vt -0.032043 0.199500
vt -0.032947 0.195058
vt -0.039898 0.197061
vt 0.077982 0.179266
vt 0.084475 0.178783
vt 0.084501 0.174250
vt 0.077287 0.174787
vt 0.176575 0.191340
vt 0.183012 0.192319
vt 0.184050 0.187907
vt 0.176898 0.186818
vt 0.229766 0.211154
vt 0.235907 0.213317
vt 0.237749 0.209176
vt 0.230926 0.206772
vt 0.230539 0.195581
vt 0.236402 0.198412
vt 0.238692 0.194500
vt 0.232177 0.191355
vt 0.180894 0.128371
vt 0.186724 0.131270
vt 0.189060 0.127385
vt 0.182582 0.124164
vt 0.077624 0.038275
vt 0.083743 0.040498
vt 0.085626 0.036375
vt 0.078826 0.033905
vt -0.071412 0.000635
vt -0.064934 0.001284
vt -0.064124 -0.003176
vt -0.071322 -0.003897
vt -0.199821 0.070694
vt -0.193439 0.069404
vt -0.193979 0.064904
vt -0.201070 0.066337
vt 0.221810 0.236916
vt 0.217385 0.235199
vt 0.214777 0.239479
vt 0.220847 0.241835
vt 0.238515 0.182644
vt 0.234429 0.180228
vt 0.231159 0.184026
vt 0.236763 0.187339
vt 0.216207 0.083675
vt 0.212335 0.080929
vt 0.208761 0.084443
vt 0.214072 0.088210
vt 0.137044 -0.047893
vt 0.133001 -0.050379
vt 0.129665 -0.046638
vt 0.135211 -0.043228
vt -0.042538 -0.126566
vt -0.047201 -0.127450
vt -0.048987 -0.122767
vt -0.042590 -0.121555
vt -0.214907 0.008218
vt -0.219354 0.009876
vt -0.218458 0.014807
vt -0.212357 0.012532
vt -0.225610 0.179888
vt -0.229531 0.182563
vt -0.227480 0.187136
vt -0.222101 0.183466
vt -0.170947 0.269945
vt -0.174864 0.272625
vt -0.172806 0.277195
vt -0.167433 0.273519
vt -0.092819 0.296169
vt -0.097020 0.298379
vt -0.095505 0.303156
vt -0.089742 0.300125
vt -0.001788 0.288072
vt -0.006322 0.289476
vt -0.005706 0.294450
vt 0.000514 0.292524
vt 0.091231 0.272321
vt 0.086499 0.272685
vt 0.085997 0.277671
vt 0.092489 0.277173
vt 0.170466 0.259350
vt 0.165779 0.258607
vt 0.164134 0.263341
vt 0.170565 0.264361
vt -0.069637 0.054049
vt -0.075054 0.053608
vt -0.075906 0.064074
vt -0.070488 0.064515
vt 0.070504 0.083882
vt 0.065307 0.082289
vt 0.062228 0.092327
vt 0.067425 0.093921
vt 0.180869 0.146627
vt 0.175912 0.144398
vt 0.171604 0.153973
vt 0.176561 0.156203
vt 0.244574 0.181372
vt 0.239659 0.179051
vt 0.235174 0.188544
vt 0.240089 0.190866
vt 0.254206 0.157090
vt 0.249106 0.155211
vt 0.245476 0.165063
vt 0.250576 0.166942
vt 0.196782 0.092942
vt 0.191420 0.092054
vt 0.189703 0.102413
vt 0.195065 0.103301
vt 0.075054 0.053608
vt 0.069637 0.054049
vt 0.070488 0.064515
vt 0.075906 0.064074
vt -0.065307 0.082289
vt -0.070504 0.083882
vt -0.067425 0.093921
vt -0.062228 0.092327
vt -0.175912 0.144398
vt -0.180869 0.146627
vt -0.176561 0.156203
vt -0.171604 0.153973
vt -0.239659 0.179051
vt -0.244574 0.181372
vt -0.240089 0.190866
vt -0.235174 0.188544
vt -0.249106 0.155211
vt -0.254206 0.157090
vt -0.250576 0.166942
vt -0.245476 0.165063
vt -0.191420 0.092054
vt -0.196782 0.092942
vt -0.195065 0.103301
vt -0.189703 0.102413
vt -0.110946 0.288672
vt -0.107468 0.284495
vt -0.106545 0.279139
vt -0.108424 0.274039
vt -0.112601 0.270561
vt -0.117958 0.269638
vt -0.123058 0.271517
vt -0.126535 0.275694
vt -0.127458 0.281051
vt -0.125579 0.286151
vt -0.121402 0.289628
vt -0.116046 0.290551
vt -0.240972 0.195612
vt -0.234184 0.193111
vt -0.239974 0.177395
vt -0.246763 0.179896
vt -0.227993 0.218575
vt -0.221452 0.215485
vt -0.228606 0.200341
vt -0.235147 0.203431
vt -0.164984 0.184133
vt -0.158387 0.181166
vt -0.165258 0.165891
vt -0.171855 0.168859
vt -0.059424 0.123078
vt -0.052508 0.120957
vt -0.057419 0.104944
vt -0.064335 0.107065
vt 0.072044 0.094710
vt 0.079254 0.094123
vt 0.077895 0.077430
vt 0.070685 0.078017
vt 0.183876 0.132082
vt 0.191013 0.133264
vt 0.193751 0.116741
vt 0.186614 0.115558
vt 0.234184 0.193110
vt 0.240972 0.195611
vt 0.246762 0.179895
vt 0.239974 0.177394
vt 0.221452 0.215485
vt 0.227993 0.218575
vt 0.235147 0.203431
vt 0.228606 0.200341
vt 0.158386 0.181165
vt 0.164984 0.184133
vt 0.171855 0.168858
vt 0.165257 0.165890
vt 0.052506 0.120956
vt 0.059423 0.123077
vt 0.064334 0.107065
vt 0.057418 0.104943
vt -0.079254 0.094123
vt -0.072044 0.094710
vt -0.070685 0.078017
vt -0.077895 0.077430
vt -0.191011 0.133263
vt -0.183874 0.132081
vt -0.186612 0.115557
vt -0.193749 0.116740
vt -0.193136 0.081695
vt -0.198498 0.082584
vt -0.252736 0.145358
vt -0.257836 0.147237
vt -0.244144 0.169557
vt -0.249059 0.171878
vt -0.180219 0.134822
vt -0.185176 0.137052
vt -0.068386 0.072250
vt -0.073583 0.073844
vt 0.074202 0.043143
vt 0.068785 0.043584
vt 0.198498 0.082584
vt 0.193136 0.081695
vt 0.257836 0.147237
vt 0.252736 0.145358
vt 0.249059 0.171878
vt 0.244144 0.169557
vt 0.185176 0.137052
vt 0.180219 0.134822
vt 0.073583 0.073844
vt 0.068386 0.072250
vt -0.068785 0.043584
vt -0.074202 0.043143
vt -0.245588 0.184179
vt -0.239955 0.182175
vt -0.242377 0.176178
vt -0.247498 0.177999
vt -0.241833 0.187832
vt -0.236427 0.185279
vt -0.239433 0.179551
vt -0.244347 0.181872
vt -0.185165 0.136060
vt -0.179749 0.133527
vt -0.182734 0.127788
vt -0.187657 0.130091
vt -0.077705 0.058987
vt -0.072028 0.057114
vt -0.074310 0.051062
vt -0.079472 0.052764
vt 0.067225 0.024900
vt 0.073180 0.024369
vt 0.072336 0.017956
vt 0.066922 0.018439
vt 0.192853 0.077843
vt 0.198737 0.078906
vt 0.199618 0.072498
vt 0.194270 0.071532
vt 0.244239 0.163665
vt 0.249805 0.165847
vt 0.251912 0.159732
vt 0.246852 0.157747
vt 0.225277 0.206784
vt 0.230657 0.209391
vt 0.233231 0.203457
vt 0.228340 0.201087
vt 0.156062 0.189203
vt 0.161526 0.191628
vt 0.163899 0.185611
vt 0.158931 0.183406
vt 0.048251 0.142068
vt 0.053988 0.143751
vt 0.055546 0.137473
vt 0.050331 0.135943
vt -0.079973 0.117876
vt -0.074012 0.118333
vt -0.073789 0.111868
vt -0.079208 0.111453
vt -0.189732 0.143187
vt -0.183825 0.142262
vt -0.185093 0.135919
vt -0.190463 0.136760
vt 0.116167 0.289226
vt 0.120845 0.288420
vt 0.124493 0.285383
vt 0.126133 0.280929
vt 0.125327 0.276252
vt 0.122290 0.272604
vt 0.117837 0.270963
vt 0.113159 0.271769
vt 0.109512 0.274806
vt 0.107871 0.279260
vt 0.108677 0.283937
vt 0.111713 0.287585
vn -0.0095 -0.0000 1.0000
vn 0.4918 -0.0000 0.8707
vn 0.8613 -0.0000 0.5082
vn 1.0000 0.0000 0.0095
vn 0.8707 0.0000 -0.4918
vn 0.5082 0.0000 -0.8613
vn 0.0095 0.0000 -1.0000
vn -0.4918 0.0000 -0.8707
vn -0.8613 -0.0000 -0.5082
vn -1.0000 0.0000 -0.0095
vn -0.8707 -0.0000 0.4918
vn -0.5082 -0.0000 0.8613
vn 0.0000 1.0000 -0.0000
vn 0.0000 -1.0000 -0.0000
vn -0.5643 0.0246 -0.8252
vn -0.1761 -0.2488 -0.9524
vn 0.2107 -0.5240 -0.8252
vn 0.4925 -0.7275 -0.4777
vn 0.5937 -0.8047 -0.0030
vn 0.4873 -0.7349 0.4718
vn 0.2017 -0.5367 0.8193
vn -0.1865 -0.2634 0.9465
vn -0.5733 0.0119 0.8193
vn -0.8550 0.2153 0.4718
vn -0.9563 0.2925 -0.0030
vn -0.8498 0.2227 -0.4777
vn -0.2123 0.5259 -0.8236
vn 0.1778 0.2512 -0.9515
vn 0.5666 -0.0255 -0.8236
vn 0.8498 -0.2300 -0.4743
vn 0.9515 -0.3075 0.0028
vn 0.8446 -0.2373 0.4800
vn 0.5575 -0.0382 0.8293
vn 0.1674 0.2365 0.9571
vn -0.2214 0.5131 0.8293
vn -0.5046 0.7177 0.4800
vn -0.6063 0.7952 0.0028
vn -0.4994 0.7250 -0.4743
vn 0.6860 0.3245 0.6513
vn 0.3815 0.5389 0.7510
vn 0.0781 0.7548 0.6513
vn -0.1429 0.9144 0.3787
vn -0.2223 0.9750 0.0063
vn -0.1388 0.9202 -0.3660
vn 0.0852 0.7648 -0.6386
vn 0.3896 0.5504 -0.7384
vn 0.6930 0.3345 -0.6386
vn 0.9140 0.1749 -0.3660
vn 0.9934 0.1144 0.0063
vn 0.9099 0.1692 0.3787
vn -0.9891 0.1471 -0.0001
vn -0.9892 0.1467 -0.0001
vn -0.9569 0.2906 -0.0001
vn -0.8606 0.1179 0.4955
vn -0.8594 0.1295 0.4947
vn -0.8396 0.2506 0.4819
vn -0.5006 0.0613 0.8635
vn -0.5004 0.0734 0.8627
vn -0.4981 0.1435 0.8552
vn -0.0009 -0.0081 1.0000
vn -0.0011 -0.0078 1.0000
vn -0.0021 -0.0065 1.0000
vn 0.4994 -0.0734 0.8633
vn 0.4991 -0.0844 0.8624
vn 0.4959 -0.1502 0.8553
vn 0.8606 -0.1194 0.4950
vn 0.8596 -0.1298 0.4942
vn 0.8417 -0.2433 0.4821
vn 0.9905 -0.1376 0.0001
vn 0.9905 -0.1373 0.0001
vn 0.9622 -0.2723 0.0003
vn 0.8606 -0.1231 -0.4942
vn 0.8616 -0.1121 -0.4950
vn 0.8432 -0.2387 -0.4817
vn 0.5009 -0.0718 -0.8625
vn 0.5009 -0.0599 -0.8634
vn 0.4990 -0.1405 -0.8551
vn 0.0011 0.0078 -1.0000
vn 0.0009 0.0081 -1.0000
vn 0.0021 0.0065 -1.0000
vn -0.4983 0.0876 -0.8626
vn -0.4988 0.0755 -0.8635
vn -0.4943 0.1554 -0.8553
vn -0.8580 0.1381 -0.4947
vn -0.8594 0.1259 -0.4955
vn -0.8374 0.2576 -0.4821
vn 0.0000 -1.0000 -0.0095
vn -0.4034 0.2956 -0.8660
vn 0.0055 0.0077 -1.0000
vn 0.4128 -0.2822 -0.8660
vn 0.7096 -0.4965 -0.5000
vn 0.8162 -0.5778 0.0000
vn 0.7041 -0.5042 0.5000
vn 0.4034 -0.2956 0.8660
vn -0.0055 -0.0077 1.0000
vn -0.4128 0.2822 0.8660
vn -0.7096 0.4965 0.5000
vn -0.8162 0.5778 0.0000
vn -0.7041 0.5042 -0.5000
vn -0.8660 0.0047 -0.5000
vn -0.5000 0.0082 -0.8660
vn 0.0000 0.0095 -1.0000
vn 0.5000 0.0082 -0.8660
vn 0.8660 0.0047 -0.5000
vn 1.0000 0.0000 0.0000
vn 0.8660 -0.0047 0.5000
vn 0.5000 -0.0082 0.8660
vn -0.0000 -0.0095 1.0000
vn -0.5000 -0.0082 0.8660
vn -0.8660 -0.0047 0.5000
vn -1.0000 -0.0000 -0.0000
vn -0.4890 0.1638 -0.8567
vn -0.0853 -0.1205 -0.9891
vn 0.3171 -0.4068 -0.8567
vn 0.6101 -0.6184 -0.4953
vn 0.7154 -0.6987 -0.0015
vn 0.6047 -0.6261 0.4923
vn 0.3077 -0.4200 0.8538
vn -0.0961 -0.1357 0.9861
vn -0.4984 0.1506 0.8538
vn -0.7915 0.3623 0.4923
vn -0.8968 0.4425 -0.0015
vn -0.7861 0.3699 -0.4953
vn 0.5777 0.8162 0.0095
usemtl mat17
s 1
f 1/1/1 2/2/1 3/3/1 4/4/1
f 2/5/2 5/6/2 6/7/2 3/8/2
f 5/9/3 7/10/3 8/11/3 6/12/3
f 7/13/4 9/14/4 10/15/4 8/16/4
f 9/17/5 11/18/5 12/19/5 10/20/5
f 11/21/6 13/22/6 14/23/6 12/24/6
f 13/25/7 15/26/7 16/27/7 14/28/7
f 15/29/8 17/30/8 18/31/8 16/32/8
f 17/33/9 19/34/9 20/35/9 18/36/9
f 19/37/10 21/38/10 22/39/10 20/40/10
f 21/41/11 23/42/11 24/43/11 22/44/11
f 23/45/12 1/46/12 4/47/12 24/48/12
f 4/49/13 3/50/13 6/51/13 8/52/13 10/53/13 12/54/13 14/55/13 16/56/13 18/57/13 20/58/13 22/59/13 24/60/13
f 23/61/14 21/62/14 19/63/14 17/64/14 15/65/14 13/66/14 11/67/14 9/68/14 7/69/14 5/70/14 2/71/14 1/72/14
f 52/73/15 51/74/15 73/75/15 74/76/15
f 51/77/16 54/78/16 75/79/16 73/80/16
f 54/81/17 56/82/17 76/83/17 75/84/17
f 56/85/18 58/86/18 77/87/18 76/88/18
f 58/89/19 60/90/19 78/91/19 77/92/19
f 60/93/20 62/94/20 79/95/20 78/96/20
f 62/97/21 64/98/21 80/99/21 79/100/21
f 64/101/22 66/102/22 81/103/22 80/104/22
f 66/105/23 68/106/23 82/107/23 81/108/23
f 68/109/24 70/110/24 83/111/24 82/112/24
f 70/113/25 72/114/25 84/115/25 83/116/25
f 72/117/26 52/118/26 74/119/26 84/120/26
f 85/121/27 86/122/27 50/123/27 49/124/27
f 86/125/28 87/126/28 53/127/28 50/128/28
f 87/129/29 88/130/29 55/131/29 53/132/29
f 88/133/30 89/134/30 57/135/30 55/136/30
f 89/137/31 90/138/31 59/139/31 57/140/31
f 90/141/32 91/142/32 61/143/32 59/144/32
f 91/145/33 92/146/33 63/147/33 61/148/33
f 92/149/34 93/150/34 65/151/34 63/152/34
f 93/153/35 94/154/35 67/155/35 65/156/35
f 94/157/36 95/158/36 69/159/36 67/160/36
f 95/161/37 96/162/37 71/163/37 69/164/37
f 96/165/38 85/166/38 49/167/38 71/168/38
f 97/169/39 98/170/39 86/171/39 85/172/39
f 98/173/40 99/174/40 87/175/40 86/176/40
f 99/177/41 100/178/41 88/179/41 87/180/41
f 100/181/42 101/182/42 89/183/42 88/184/42
f 101/185/43 102/186/43 90/187/43 89/188/43
f 102/189/44 103/190/44 91/191/44 90/192/44
f 103/193/45 104/194/45 92/195/45 91/196/45
f 104/197/46 105/198/46 93/199/46 92/200/46
f 105/201/47 106/202/47 94/203/47 93/204/47
f 106/205/48 107/206/48 95/207/48 94/208/48
f 107/209/49 108/210/49 96/211/49 95/212/49
f 108/213/50 97/214/50 85/215/50 96/216/50
usemtl mat16
f 109/217/51 110/218/52 27/219/53 28/220/53
f 110/221/54 111/222/55 30/223/56 27/224/56
f 111/225/57 112/226/58 32/227/59 30/228/59
f 112/229/60 113/230/61 34/231/62 32/232/62
f 113/233/63 114/234/64 36/235/65 34/236/65
f 114/237/66 115/238/67 38/239/68 36/240/68
f 115/241/69 116/242/70 40/243/71 38/244/71
f 116/245/72 117/246/73 42/247/74 40/248/74
f 117/249/75 118/250/76 44/251/77 42/252/77
f 118/253/78 119/254/79 46/255/80 44/256/80
f 119/257/81 120/258/82 48/259/83 46/260/83
f 120/261/84 109/262/85 28/263/86 48/264/86
f 47/265/87 45/266/87 43/267/87 41/268/87 39/269/87 37/270/87 35/271/87 33/272/87 31/273/87 29/274/87 26/275/87 25/276/87
f 49/277/88 50/278/88 51/279/88 52/280/88
f 50/281/89 53/282/89 54/283/89 51/284/89
f 53/285/90 55/286/90 56/287/90 54/288/90
f 55/289/91 57/290/91 58/291/91 56/292/91
f 57/293/92 59/294/92 60/295/92 58/296/92
f 59/297/93 61/298/93 62/299/93 60/300/93
f 61/301/94 63/302/94 64/303/94 62/304/94
f 63/305/95 65/306/95 66/307/95 64/308/95
f 65/309/96 67/310/96 68/311/96 66/312/96
f 67/313/97 69/314/97 70/315/97 68/316/97
f 69/317/98 71/318/98 72/319/98 70/320/98
f 71/321/99 49/322/99 52/323/99 72/324/99
f 47/325/100 25/326/100 109/262/85 120/261/84
f 45/327/101 47/328/101 120/258/82 119/257/81
f 43/329/102 45/330/102 119/254/79 118/253/78
f 41/331/103 43/332/103 118/250/76 117/249/75
f 39/333/104 41/334/104 117/246/73 116/245/72
f 37/335/105 39/336/105 116/242/70 115/241/69
f 35/337/106 37/338/106 115/238/67 114/237/66
f 33/339/107 35/340/107 114/234/64 113/233/63
f 31/341/108 33/342/108 113/230/61 112/229/60
f 29/343/109 31/344/109 112/226/58 111/225/57
f 26/345/110 29/346/110 111/222/55 110/221/54
f 25/347/111 26/348/111 110/218/52 109/217/51
usemtl mat8
f 74/349/112 73/350/112 46/351/112 48/352/112
f 73/353/113 75/354/113 44/355/113 46/356/113
f 75/357/114 76/358/114 42/359/114 44/360/114
f 76/361/115 77/362/115 40/363/115 42/364/115
f 77/365/116 78/366/116 38/367/116 40/368/116
f 78/369/117 79/370/117 36/371/117 38/372/117
f 79/373/118 80/374/118 34/375/118 36/376/118
f 80/377/119 81/378/119 32/379/119 34/380/119
f 81/381/120 82/382/120 30/383/120 32/384/120
f 82/385/121 83/386/121 27/387/121 30/388/121
f 83/389/122 84/390/122 28/391/122 27/392/122
f 84/393/123 74/394/123 48/395/123 28/396/123
usemtl mat23
f 108/397/124 107/398/124 106/399/124 105/400/124 104/401/124 103/402/124 102/403/124 101/404/124 100/405/124 99/406/124 98/407/124 97/408/124
